<svg width="449" height="78" viewBox="0 0 449 78" fill="none" xmlns="http://www.w3.org/2000/svg">
<g filter="url(#filter0_d_110:9)">
<path d="M47.9297 49.832C45.5859 51.8477 42.9609 53.3945 40.0547 54.4727C37.1484 55.5508 34.1367 56.0898 31.0195 56.0898C28.6289 56.0898 26.3203 55.7734 24.0938 55.1406C21.8906 54.5312 19.8164 53.6641 17.8711 52.5391C15.9492 51.3906 14.1914 50.0195 12.5977 48.4258C11.0039 46.832 9.63281 45.0742 8.48438 43.1523C7.35938 41.207 6.48047 39.1328 5.84766 36.9297C5.23828 34.7031 4.93359 32.3945 4.93359 30.0039C4.93359 27.6133 5.23828 25.3047 5.84766 23.0781C6.48047 20.8516 7.35938 18.7773 8.48438 16.8555C9.63281 14.9102 11.0039 13.1406 12.5977 11.5469C14.1914 9.95313 15.9492 8.59375 17.8711 7.46875C19.8164 6.32031 21.8906 5.44141 24.0938 4.83203C26.3203 4.19922 28.6289 3.88281 31.0195 3.88281C34.1367 3.88281 37.1484 4.42187 40.0547 5.5C42.9609 6.55469 45.5859 8.10156 47.9297 10.1406L42.5859 18.9297C41.1094 17.3359 39.3633 16.1172 37.3477 15.2734C35.332 14.4062 33.2227 13.9727 31.0195 13.9727C28.793 13.9727 26.707 14.3945 24.7617 15.2383C22.8164 16.082 21.1172 17.2305 19.6641 18.6836C18.2109 20.1133 17.0625 21.8125 16.2188 23.7812C15.375 25.7266 14.9531 27.8008 14.9531 30.0039C14.9531 32.207 15.375 34.2812 16.2188 36.2266C17.0625 38.1484 18.2109 39.8359 19.6641 41.2891C21.1172 42.7422 22.8164 43.8906 24.7617 44.7344C26.707 45.5781 28.793 46 31.0195 46C33.2227 46 35.332 45.5781 37.3477 44.7344C39.3633 43.8672 41.1094 42.6367 42.5859 41.043L47.9297 49.832ZM87.832 35.8398C87.832 38.6523 87.3281 41.2773 86.3203 43.7148C85.3125 46.1289 83.9414 48.2266 82.207 50.0078C80.4727 51.7656 78.4336 53.1602 76.0898 54.1914C73.7695 55.1992 71.2734 55.7031 68.6016 55.7031C65.9531 55.7031 63.457 55.1992 61.1133 54.1914C58.793 53.1602 56.7539 51.7656 54.9961 50.0078C53.2617 48.2266 51.8906 46.1289 50.8828 43.7148C49.875 41.2773 49.3711 38.6523 49.3711 35.8398C49.3711 32.9805 49.875 30.332 50.8828 27.8945C51.8906 25.457 53.2617 23.3594 54.9961 21.6016C56.7539 19.8203 58.793 18.4258 61.1133 17.418C63.457 16.4102 65.9531 15.9062 68.6016 15.9062C71.2734 15.9062 73.7695 16.3867 76.0898 17.3477C78.4336 18.2852 80.4727 19.6328 82.207 21.3906C83.9414 23.125 85.3125 25.2227 86.3203 27.6836C87.3281 30.1211 87.832 32.8398 87.832 35.8398ZM78.1641 35.8398C78.1641 34.293 77.9062 32.8984 77.3906 31.6562C76.8984 30.3906 76.2188 29.3125 75.3516 28.4219C74.4844 27.5078 73.4648 26.8164 72.293 26.3477C71.1445 25.8555 69.9141 25.6094 68.6016 25.6094C67.2891 25.6094 66.0469 25.8555 64.875 26.3477C63.7266 26.8164 62.7188 27.5078 61.8516 28.4219C61.0078 29.3125 60.3398 30.3906 59.8477 31.6562C59.3555 32.8984 59.1094 34.293 59.1094 35.8398C59.1094 37.293 59.3555 38.6406 59.8477 39.8828C60.3398 41.125 61.0078 42.2031 61.8516 43.1172C62.7188 44.0312 63.7266 44.7578 64.875 45.2969C66.0469 45.8125 67.2891 46.0703 68.6016 46.0703C69.9141 46.0703 71.1445 45.8242 72.293 45.332C73.4648 44.8398 74.4844 44.1484 75.3516 43.2578C76.2188 42.3672 76.8984 41.2891 77.3906 40.0234C77.9062 38.7578 78.1641 37.3633 78.1641 35.8398ZM141.023 55H131.461V31.0938C131.461 30.4375 131.332 29.8164 131.074 29.2305C130.84 28.6445 130.5 28.1289 130.055 27.6836C129.609 27.2383 129.094 26.8984 128.508 26.6641C127.922 26.4062 127.301 26.2773 126.645 26.2773C125.988 26.2773 125.367 26.4062 124.781 26.6641C124.219 26.8984 123.715 27.2383 123.27 27.6836C122.848 28.1289 122.508 28.6445 122.25 29.2305C122.016 29.8164 121.898 30.4375 121.898 31.0938V55H112.301V31.0938C112.301 30.4375 112.172 29.8164 111.914 29.2305C111.68 28.6445 111.34 28.1289 110.895 27.6836C110.449 27.2383 109.934 26.8984 109.348 26.6641C108.762 26.4062 108.141 26.2773 107.484 26.2773C106.828 26.2773 106.207 26.4062 105.621 26.6641C105.059 26.8984 104.555 27.2383 104.109 27.6836C103.688 28.1289 103.348 28.6445 103.09 29.2305C102.855 29.8164 102.738 30.4375 102.738 31.0938V55H93.1406V17.3477H95.4609L98.0625 20.2305C99.3984 19.1055 100.863 18.2383 102.457 17.6289C104.074 16.9961 105.75 16.6797 107.484 16.6797C109.242 16.6797 110.953 17.0078 112.617 17.6641C114.305 18.3203 115.781 19.457 117.047 21.0742C117.633 20.2773 118.301 19.5977 119.051 19.0352C119.801 18.4727 120.586 18.0156 121.406 17.6641C122.25 17.3125 123.117 17.0664 124.008 16.9258C124.898 16.7617 125.777 16.6797 126.645 16.6797C128.637 16.6797 130.5 17.0547 132.234 17.8047C133.992 18.5547 135.516 19.5859 136.805 20.8984C138.117 22.1875 139.148 23.7109 139.898 25.4688C140.648 27.2266 141.023 29.1016 141.023 31.0938V55ZM175.723 50.6055C174.949 51.3086 174.117 51.9766 173.227 52.6094C172.359 53.2188 171.445 53.7578 170.484 54.2266C169.523 54.6719 168.527 55.0234 167.496 55.2812C166.488 55.5625 165.457 55.7031 164.402 55.7031C162.082 55.7031 159.902 55.293 157.863 54.4727C155.824 53.6523 154.031 52.4922 152.484 50.9922C150.961 49.4688 149.754 47.6289 148.863 45.4727C147.996 43.293 147.562 40.8555 147.562 38.1602V17.3477H157.125V38.1602C157.125 39.4258 157.312 40.5625 157.688 41.5703C158.086 42.5547 158.613 43.3867 159.27 44.0664C159.926 44.7461 160.688 45.2617 161.555 45.6133C162.445 45.9648 163.395 46.1406 164.402 46.1406C165.387 46.1406 166.312 45.918 167.18 45.4727C168.07 45.0039 168.844 44.3945 169.5 43.6445C170.156 42.8945 170.672 42.0508 171.047 41.1133C171.422 40.1523 171.609 39.168 171.609 38.1602V17.3477H181.207V55H178.887L175.723 50.6055ZM198.152 55H188.555V17.3477H190.875L194.039 21.0039C195.586 19.5977 197.332 18.5195 199.277 17.7695C201.246 16.9961 203.297 16.6094 205.43 16.6094C207.727 16.6094 209.895 17.0547 211.934 17.9453C213.973 18.8125 215.754 20.0195 217.277 21.5664C218.801 23.0898 219.996 24.8828 220.863 26.9453C221.754 28.9844 222.199 31.1641 222.199 33.4844V55H212.602V33.4844C212.602 32.5 212.414 31.5742 212.039 30.707C211.664 29.8164 211.148 29.043 210.492 28.3867C209.836 27.7305 209.074 27.2148 208.207 26.8398C207.34 26.4648 206.414 26.2773 205.43 26.2773C204.422 26.2773 203.473 26.4648 202.582 26.8398C201.691 27.2148 200.918 27.7305 200.262 28.3867C199.605 29.043 199.09 29.8164 198.715 30.707C198.34 31.5742 198.152 32.5 198.152 33.4844V55ZM240.375 7.11719C240.375 8.00781 240.199 8.83984 239.848 9.61328C239.52 10.3867 239.062 11.0664 238.477 11.6523C237.891 12.2148 237.199 12.6719 236.402 13.0234C235.629 13.3516 234.797 13.5156 233.906 13.5156C233.016 13.5156 232.172 13.3516 231.375 13.0234C230.602 12.6719 229.922 12.2148 229.336 11.6523C228.773 11.0664 228.316 10.3867 227.965 9.61328C227.637 8.83984 227.473 8.00781 227.473 7.11719C227.473 6.25 227.637 5.42969 227.965 4.65625C228.316 3.85937 228.773 3.17969 229.336 2.61719C229.922 2.03125 230.602 1.57422 231.375 1.24609C232.172 0.894531 233.016 0.71875 233.906 0.71875C234.797 0.71875 235.629 0.894531 236.402 1.24609C237.199 1.57422 237.891 2.03125 238.477 2.61719C239.062 3.17969 239.52 3.85937 239.848 4.65625C240.199 5.42969 240.375 6.25 240.375 7.11719ZM238.723 55H229.055V17.3477H238.723V55ZM264.949 55C262.629 55 260.449 54.5664 258.41 53.6992C256.371 52.8086 254.578 51.6016 253.031 50.0781C251.508 48.5312 250.301 46.7383 249.41 44.6992C248.543 42.6602 248.109 40.4805 248.109 38.1602V26.9805H243.434V17.418H248.109V2.37109H257.672V17.418H272.227V26.9805H257.672V38.1602C257.672 39.168 257.859 40.1172 258.234 41.0078C258.609 41.875 259.125 42.6367 259.781 43.293C260.438 43.9492 261.211 44.4766 262.102 44.875C262.992 45.25 263.941 45.4375 264.949 45.4375H272.227V55H264.949ZM286.711 69.3438V59.6758L292.055 59.7461C292.992 59.7461 293.895 59.5938 294.762 59.2891C295.629 58.9844 296.426 58.5625 297.152 58.0234C297.902 57.4844 298.559 56.8398 299.121 56.0898C299.684 55.3633 300.141 54.5664 300.492 53.6992C299.438 54.1445 298.359 54.5898 297.258 55.0352C296.18 55.4805 295.09 55.7031 293.988 55.7031C291.668 55.7031 289.488 55.293 287.449 54.4727C285.41 53.6523 283.617 52.4922 282.07 50.9922C280.547 49.4688 279.34 47.6289 278.449 45.4727C277.582 43.293 277.148 40.8555 277.148 38.1602V17.3477H286.711V38.1602C286.711 39.4961 286.898 40.668 287.273 41.6758C287.672 42.6602 288.199 43.4922 288.855 44.1719C289.512 44.8281 290.273 45.3203 291.141 45.6484C292.031 45.9766 292.98 46.1406 293.988 46.1406C294.973 46.1406 295.898 45.918 296.766 45.4727C297.656 45.0039 298.43 44.3945 299.086 43.6445C299.742 42.8945 300.258 42.0508 300.633 41.1133C301.008 40.1523 301.195 39.168 301.195 38.1602V17.3477H310.863V50.2539C310.84 52.9023 310.324 55.3867 309.316 57.707C308.309 60.0273 306.926 62.0547 305.168 63.7891C303.434 65.5234 301.406 66.8945 299.086 67.9023C296.766 68.9102 294.281 69.4141 291.633 69.4141L286.711 69.3438ZM369.082 34.8555V24.7656C369.082 23.3828 368.812 22.082 368.273 20.8633C367.758 19.6211 367.043 18.543 366.129 17.6289C365.215 16.7148 364.137 16 362.895 15.4844C361.676 14.9453 360.375 14.6758 358.992 14.6758C357.609 14.6758 356.297 14.9453 355.055 15.4844C353.836 16 352.77 16.7148 351.855 17.6289C350.941 18.543 350.215 19.6211 349.676 20.8633C349.16 22.082 348.902 23.3828 348.902 24.7656V34.8555H369.082ZM379.172 55H369.082V44.9102H348.902V55H338.848V24.7656C338.848 21.9766 339.375 19.3633 340.43 16.9258C341.484 14.4648 342.914 12.3203 344.719 10.4922C346.547 8.66406 348.68 7.22266 351.117 6.16797C353.578 5.11328 356.203 4.58594 358.992 4.58594C361.781 4.58594 364.395 5.11328 366.832 6.16797C369.293 7.22266 371.438 8.66406 373.266 10.4922C375.094 12.3203 376.535 14.4648 377.59 16.9258C378.645 19.3633 379.172 21.9766 379.172 24.7656V55ZM398.016 14.6758V34.8555H408.105C409.488 34.8555 410.789 34.5977 412.008 34.082C413.227 33.543 414.293 32.8164 415.207 31.9023C416.121 30.9883 416.836 29.9219 417.352 28.7031C417.891 27.4609 418.16 26.1484 418.16 24.7656C418.16 23.3828 417.891 22.082 417.352 20.8633C416.836 19.6211 416.121 18.543 415.207 17.6289C414.293 16.7148 413.227 16 412.008 15.4844C410.789 14.9453 409.488 14.6758 408.105 14.6758H398.016ZM398.016 55H387.926V4.58594H408.105C409.957 4.58594 411.738 4.83203 413.449 5.32422C415.16 5.79297 416.754 6.47266 418.23 7.36328C419.73 8.23047 421.09 9.28516 422.309 10.5273C423.551 11.7461 424.605 13.1055 425.473 14.6055C426.363 16.1055 427.043 17.7109 427.512 19.4219C428.004 21.1328 428.25 22.9141 428.25 24.7656C428.25 27.5312 427.723 30.1445 426.668 32.6055C425.613 35.043 424.172 37.1758 422.344 39.0039C420.516 40.832 418.371 42.2734 415.91 43.3281C413.473 44.3828 410.871 44.9102 408.105 44.9102H398.016V55ZM444.281 55H434.191V4.58594H444.281V55Z" fill="#1E2832"/>
</g>
<defs>
<filter id="filter0_d_110:9" x="0.933594" y="0.71875" width="447.348" height="76.6953" filterUnits="userSpaceOnUse" color-interpolation-filters="sRGB">
<feFlood flood-opacity="0" result="BackgroundImageFix"/>
<feColorMatrix in="SourceAlpha" type="matrix" values="0 0 0 0 0 0 0 0 0 0 0 0 0 0 0 0 0 0 127 0" result="hardAlpha"/>
<feOffset dy="4"/>
<feGaussianBlur stdDeviation="2"/>
<feComposite in2="hardAlpha" operator="out"/>
<feColorMatrix type="matrix" values="0 0 0 0 0 0 0 0 0 0 0 0 0 0 0 0 0 0 0.25 0"/>
<feBlend mode="normal" in2="BackgroundImageFix" result="effect1_dropShadow_110:9"/>
<feBlend mode="normal" in="SourceGraphic" in2="effect1_dropShadow_110:9" result="shape"/>
</filter>
</defs>
</svg>
